<?xml version="1.0" encoding="UTF-8"?>
<svg id="Calque_1" data-name="Calque 1" xmlns="http://www.w3.org/2000/svg" viewBox="0 0 512 512">
  <defs>
    <style>
      .cls-1 {
        fill: #fff;
      }

      .cls-2 {
        fill: #8d833f;
      }
    </style>
  </defs>
  <rect class="cls-2" y="0" width="512" height="512"/>
  <g>
    <path class="cls-1" d="m158.2,327v-142h89.8v30h-55.4v29.8h48.6v29.8h-48.6v52.4h-34.4Z"/>
    <path class="cls-1" d="m255.8,327v-142h54c9.87,0,18.4,1.5,25.6,4.5,7.2,3,12.73,7.27,16.6,12.8,3.87,5.53,5.8,12.1,5.8,19.7,0,6.67-1.47,12.57-4.4,17.7-2.93,5.13-7.13,9.17-12.6,12.1,7.33,2.8,13,7.23,17,13.3,4,6.07,6,13.17,6,21.3s-2.17,15.43-6.5,21.5c-4.33,6.07-10.47,10.77-18.4,14.1-7.93,3.33-17.3,5-28.1,5h-55Zm33.2-114.4v28.8h17c5.73,0,10.13-1.23,13.2-3.7,3.07-2.47,4.6-5.97,4.6-10.5s-1.53-8.27-4.6-10.8c-3.07-2.53-7.47-3.8-13.2-3.8h-17Zm0,86.8h20.4c6.53,0,11.53-1.4,15-4.2,3.47-2.8,5.2-6.8,5.2-12s-1.73-9.4-5.2-12.2c-3.47-2.8-8.47-4.2-15-4.2h-20.4v32.6Z"/>
  </g>
</svg>